<svg width="124" height="124" viewBox="0 0 124 124" fill="none" xmlns="http://www.w3.org/2000/svg">
<path d="M0 32.1879C4.62142 32.1879 8.38199 31.871 11.2817 31.2372C14.272 30.5129 16.5827 29.4716 18.2138 28.1134C19.8449 26.7553 20.9776 25.0349 21.6119 22.9524C22.2463 20.8699 22.5634 18.38 22.5634 15.4825H42.0006V110.554H19.5731V47.6709H0V32.1879Z" fill="#2469F0"/>
<path d="M57.2612 110.554C57.2612 102.858 57.8502 96.3836 59.0283 91.132C60.2969 85.8805 62.0639 81.4438 64.3293 77.8221C66.5947 74.2003 69.2226 71.1218 72.2129 68.5866C75.2938 66.0514 78.6919 63.652 82.4072 61.3884C85.2163 59.7586 87.7989 58.2193 90.1549 56.7706C92.6015 55.2314 94.731 53.6921 96.5433 52.1529C98.3556 50.6136 99.7602 48.9386 100.757 47.1277C101.844 45.2263 102.388 43.0985 102.388 40.7443C102.388 36.9415 101.346 34.2252 99.2618 32.5954C97.1776 30.875 94.5951 30.0149 91.5141 30.0149C88.0707 30.0149 85.171 31.1014 82.815 33.2745C80.5496 35.357 79.4169 38.8882 79.4169 43.8681H57.5331C57.5331 39.522 58.258 35.4928 59.7079 31.7805C61.2483 28.0682 63.4684 24.8539 66.3682 22.1375C69.2679 19.4212 72.8019 17.2934 76.9702 15.7542C81.1386 14.2149 85.9412 13.4453 91.3782 13.4453C95.7278 13.4453 99.8508 14.0338 103.747 15.2109C107.734 16.2974 111.223 18.0178 114.213 20.3719C117.204 22.6355 119.56 25.6235 121.282 29.3358C123.094 32.9575 124 37.2584 124 42.2383C124 46.2222 123.139 49.844 121.417 53.1036C119.696 56.3632 117.566 59.2606 115.029 61.7958C112.582 64.331 109.909 66.5946 107.009 68.5866C104.11 70.488 101.482 72.1178 99.1259 73.476C95.8637 75.649 93.1452 77.5505 90.9704 79.1803C88.8863 80.7195 87.2099 82.1682 85.9412 83.5264C84.6726 84.8845 83.7664 86.2879 83.2228 87.7367C82.7697 89.1854 82.5431 90.8604 82.5431 92.7618H123.32V110.554H57.2612Z" fill="#2469F0"/>
</svg>
